<svg xmlns="http://www.w3.org/2000/svg" width="933" height="1455" viewBox="0 0 933 1455" role="img" aria-labelledby="title desc">
  <title id="title">The Gentle Reset book cover</title>
  <desc id="desc">Cream and soft gold cover for The Gentle Reset, a seven-day guided journal by DivaglamKreation.</desc>
  <rect width="933" height="1455" fill="#fbf7ef"/>
  <rect x="38" y="38" width="857" height="1379" fill="none" stroke="#d9b85f" stroke-width="2"/>
  <g stroke="#d9b85f" stroke-width="4" fill="none" stroke-linecap="round">
    <line x1="115" y1="120" x2="115" y2="390"/>
    <line x1="115" y1="165" x2="58" y2="118"/>
    <line x1="115" y1="220" x2="180" y2="165"/>
    <line x1="115" y1="280" x2="66" y2="240"/>
    <line x1="115" y1="340" x2="185" y2="285"/>
    <circle cx="58" cy="118" r="8" fill="#d9b85f"/>
    <circle cx="180" cy="165" r="8" fill="#d9b85f"/>
    <circle cx="66" cy="240" r="8" fill="#d9b85f"/>
    <circle cx="185" cy="285" r="8" fill="#d9b85f"/>
    <line x1="820" y1="1010" x2="820" y2="1325"/>
    <line x1="820" y1="1080" x2="755" y2="1030"/>
    <line x1="820" y1="1140" x2="885" y2="1085"/>
    <line x1="820" y1="1210" x2="765" y2="1165"/>
    <line x1="820" y1="1270" x2="890" y2="1215"/>
    <circle cx="755" cy="1030" r="8" fill="#d9b85f"/>
    <circle cx="885" cy="1085" r="8" fill="#d9b85f"/>
    <circle cx="765" cy="1165" r="8" fill="#d9b85f"/>
    <circle cx="890" cy="1215" r="8" fill="#d9b85f"/>
  </g>
  <g fill="#d9b85f" stroke="#d9b85f">
    <circle cx="466" cy="146" r="15"/>
    <g stroke-width="3">
      <line x1="466" y1="108" x2="466" y2="91"/>
      <line x1="466" y1="201" x2="466" y2="184"/>
      <line x1="428" y1="146" x2="411" y2="146"/>
      <line x1="521" y1="146" x2="504" y2="146"/>
      <line x1="439" y1="119" x2="427" y2="107"/>
      <line x1="505" y1="185" x2="493" y2="173"/>
      <line x1="493" y1="119" x2="505" y2="107"/>
      <line x1="427" y1="185" x2="439" y2="173"/>
    </g>
  </g>
  <line x1="348" y1="238" x2="584" y2="238" stroke="#d9b85f" stroke-width="2"/>
  <text x="466" y="342" text-anchor="middle" fill="#49342d" font-family="Georgia, 'Times New Roman', serif" font-size="72">The Gentle</text>
  <text x="466" y="424" text-anchor="middle" fill="#49342d" font-family="Georgia, 'Times New Roman', serif" font-size="72">Reset</text>
  <line x1="348" y1="478" x2="584" y2="478" stroke="#d9b85f" stroke-width="2"/>
  <text x="466" y="552" text-anchor="middle" fill="#7a5145" font-family="Georgia, 'Times New Roman', serif" font-size="30">A 7-Day Guided Journal to</text>
  <text x="466" y="594" text-anchor="middle" fill="#7a5145" font-family="Georgia, 'Times New Roman', serif" font-size="30">Pause, Reflect &amp; Begin Again</text>
  <rect x="255" y="640" width="422" height="82" rx="41" fill="#f3dfc9"/>
  <text x="466" y="693" text-anchor="middle" fill="#7a5145" font-family="Georgia, 'Times New Roman', serif" font-size="31" font-style="italic">Faith. Flow. Flourish.</text>
  <text x="466" y="1195" text-anchor="middle" fill="#7a5145" font-family="Georgia, 'Times New Roman', serif" font-size="28">by DivaglamKreation</text>
  <circle cx="466" cy="1310" r="58" fill="none" stroke="#d9b85f" stroke-width="3"/>
  <text x="466" y="1324" text-anchor="middle" fill="#d9b85f" font-family="Georgia, 'Times New Roman', serif" font-size="38">DK</text>
</svg>